<svg width="128" height="128" viewBox="0 0 128 128" fill="none" xmlns="http://www.w3.org/2000/svg">
<g clip-path="url(#clip0)">
<path d="M0 24C0 10.7452 10.7452 0 24 0H104C117.255 0 128 10.7452 128 24V104C128 117.255 117.255 128 104 128H24C10.7452 128 0 117.255 0 104V24Z" fill="#ADADAD"/>
<g filter="url(#filter0_d)">
<path d="M15.4078 106.48C11.5038 106.48 8.47981 105.408 6.33581 103.264C4.22381 101.088 3.16781 97.68 3.16781 93.04C3.16781 89.84 3.71181 87.232 4.79981 85.216C5.88781 83.2 7.39181 81.712 9.31181 80.752C11.2638 79.792 13.5038 79.312 16.0318 79.312C17.8238 79.312 19.3758 79.488 20.6878 79.84C22.0318 80.192 23.1998 80.608 24.1918 81.088L22.0798 86.608C20.9598 86.16 19.9038 85.792 18.9118 85.504C17.9518 85.216 16.9918 85.072 16.0318 85.072C12.3198 85.072 10.4638 87.712 10.4638 92.992C10.4638 95.616 10.9438 97.552 11.9038 98.8C12.8958 100.048 14.2718 100.672 16.0318 100.672C17.5358 100.672 18.8638 100.48 20.0158 100.096C21.1678 99.68 22.2878 99.12 23.3758 98.416V104.512C22.2878 105.216 21.1358 105.712 19.9198 106C18.7358 106.32 17.2318 106.48 15.4078 106.48ZM60.1761 79.312C63.1521 79.312 65.3921 80.08 66.8961 81.616C68.4321 83.12 69.2001 85.552 69.2001 88.912V106H62.0481V90.688C62.0481 86.912 60.7361 85.024 58.1121 85.024C56.2241 85.024 54.8801 85.696 54.0801 87.04C53.2801 88.384 52.8801 90.32 52.8801 92.848V106H45.7281V90.688C45.7281 86.912 44.4161 85.024 41.7921 85.024C39.8081 85.024 38.4321 85.776 37.6641 87.28C36.9281 88.752 36.5601 90.88 36.5601 93.664V106H29.4081V79.792H34.8801L35.8401 83.152H36.2241C37.0241 81.808 38.1121 80.832 39.4881 80.224C40.8961 79.616 42.3521 79.312 43.8561 79.312C45.7761 79.312 47.4081 79.632 48.7521 80.272C50.0961 80.88 51.1201 81.84 51.8241 83.152H52.4481C53.2481 81.808 54.3521 80.832 55.7601 80.224C57.2001 79.616 58.6721 79.312 60.1761 79.312ZM84.8683 106.48C81.9563 106.48 79.5723 105.344 77.7163 103.072C75.8923 100.768 74.9803 97.392 74.9803 92.944C74.9803 88.464 75.9083 85.072 77.7643 82.768C79.6203 80.464 82.0523 79.312 85.0603 79.312C86.9483 79.312 88.5003 79.68 89.7163 80.416C90.9323 81.152 91.8923 82.064 92.5963 83.152H92.8363C92.7403 82.64 92.6283 81.904 92.5003 80.944C92.3723 79.952 92.3083 78.944 92.3083 77.92V69.52H99.4603V106H93.9883L92.5963 102.592H92.3083C91.6043 103.68 90.6603 104.608 89.4763 105.376C88.2923 106.112 86.7563 106.48 84.8683 106.48ZM87.3643 100.768C89.3483 100.768 90.7403 100.192 91.5403 99.04C92.3403 97.856 92.7563 96.096 92.7883 93.76V92.992C92.7883 90.432 92.3883 88.48 91.5883 87.136C90.8203 85.792 89.3803 85.12 87.2683 85.12C85.7003 85.12 84.4683 85.808 83.5723 87.184C82.6763 88.528 82.2283 90.48 82.2283 93.04C82.2283 95.6 82.6763 97.536 83.5723 98.848C84.4683 100.128 85.7323 100.768 87.3643 100.768ZM121.579 79.312C121.931 79.312 122.347 79.328 122.827 79.36C123.307 79.392 123.691 79.44 123.979 79.504L123.451 86.224C123.227 86.16 122.891 86.112 122.443 86.08C122.027 86.016 121.659 85.984 121.339 85.984C120.123 85.984 118.955 86.208 117.835 86.656C116.715 87.072 115.803 87.76 115.099 88.72C114.427 89.68 114.091 90.992 114.091 92.656V106H106.939V79.792H112.363L113.419 84.208H113.755C114.523 82.864 115.579 81.712 116.923 80.752C118.267 79.792 119.819 79.312 121.579 79.312Z" fill="#315659"/>
</g>
<g filter="url(#filter1_d)">
<path d="M47.6212 19.968C52.0372 19.968 55.6132 21.696 58.3492 25.152C61.0852 28.56 62.4532 33.6 62.4532 40.272C62.4532 46.944 61.0372 52.032 58.2052 55.536C55.3732 58.992 51.7492 60.72 47.3332 60.72C44.5012 60.72 42.2452 60.216 40.5652 59.208C38.8852 58.152 37.5172 56.976 36.4612 55.68H35.8852C36.2692 57.696 36.4612 59.616 36.4612 61.44V77.28H25.7332V20.688H34.4452L35.9572 25.8H36.4612C37.5172 24.216 38.9332 22.848 40.7092 21.696C42.4852 20.544 44.7892 19.968 47.6212 19.968ZM44.1652 28.536C41.3812 28.536 39.4132 29.4 38.2612 31.128C37.1572 32.856 36.5572 35.496 36.4612 39.048V40.2C36.4612 43.992 37.0132 46.92 38.1172 48.984C39.2692 51 41.3332 52.008 44.3092 52.008C46.7572 52.008 48.5572 51 49.7092 48.984C50.9092 46.92 51.5092 43.968 51.5092 40.128C51.5092 32.4 49.0612 28.536 44.1652 28.536ZM87.2797 29.832C92.1757 29.832 96.1117 31.056 99.0877 33.504C102.064 35.904 103.552 39.456 103.552 44.16C103.552 49.296 101.872 53.352 98.5117 56.328C95.1997 59.256 90.0397 60.72 83.0317 60.72C80.3437 60.72 77.7997 60.48 75.3997 60C73.0477 59.52 70.9837 58.824 69.2077 57.912V48.696C70.9837 49.608 73.1197 50.4 75.6157 51.072C78.1117 51.696 80.4637 52.008 82.6717 52.008C86.0797 52.008 88.5757 51.456 90.1597 50.352C91.7917 49.248 92.6077 47.52 92.6077 45.168C92.6077 40.704 89.3677 38.472 82.8877 38.472C81.2557 38.472 79.6957 38.592 78.2077 38.832C76.7197 39.072 75.4957 39.336 74.5357 39.624L70.2157 37.392L72.1597 13.128H100.024V22.2H81.3037L80.5117 30.552C81.2797 30.36 82.1677 30.192 83.1757 30.048C84.2317 29.904 85.5997 29.832 87.2797 29.832Z" fill="#EA9010"/>
</g>
</g>
<defs>
<filter id="filter0_d" x="-0.832188" y="69.52" width="128.812" height="44.96" filterUnits="userSpaceOnUse" color-interpolation-filters="sRGB">
<feFlood flood-opacity="0" result="BackgroundImageFix"/>
<feColorMatrix in="SourceAlpha" type="matrix" values="0 0 0 0 0 0 0 0 0 0 0 0 0 0 0 0 0 0 127 0"/>
<feOffset dy="4"/>
<feGaussianBlur stdDeviation="2"/>
<feColorMatrix type="matrix" values="0 0 0 0 0 0 0 0 0 0 0 0 0 0 0 0 0 0 0.25 0"/>
<feBlend mode="normal" in2="BackgroundImageFix" result="effect1_dropShadow"/>
<feBlend mode="normal" in="SourceGraphic" in2="effect1_dropShadow" result="shape"/>
</filter>
<filter id="filter1_d" x="21.7332" y="13.128" width="85.8185" height="72.152" filterUnits="userSpaceOnUse" color-interpolation-filters="sRGB">
<feFlood flood-opacity="0" result="BackgroundImageFix"/>
<feColorMatrix in="SourceAlpha" type="matrix" values="0 0 0 0 0 0 0 0 0 0 0 0 0 0 0 0 0 0 127 0"/>
<feOffset dy="4"/>
<feGaussianBlur stdDeviation="2"/>
<feColorMatrix type="matrix" values="0 0 0 0 0 0 0 0 0 0 0 0 0 0 0 0 0 0 0.25 0"/>
<feBlend mode="normal" in2="BackgroundImageFix" result="effect1_dropShadow"/>
<feBlend mode="normal" in="SourceGraphic" in2="effect1_dropShadow" result="shape"/>
</filter>
<clipPath id="clip0">
<rect width="128" height="128" fill="white"/>
</clipPath>
</defs>
</svg>
